<?xml version="1.0" encoding="UTF-8" standalone="no"?>
<svg
   xmlns:dc="http://purl.org/dc/elements/1.1/"
   xmlns:cc="http://creativecommons.org/ns#"
   xmlns:rdf="http://www.w3.org/1999/02/22-rdf-syntax-ns#"
   xmlns:svg="http://www.w3.org/2000/svg"
   xmlns="http://www.w3.org/2000/svg"
   xmlns:sodipodi="http://sodipodi.sourceforge.net/DTD/sodipodi-0.dtd"
   xmlns:inkscape="http://www.inkscape.org/namespaces/inkscape"
   data-name="Layer 1"
   viewBox="0 0 100 125"
   x="0px"
   y="0px"
   version="1.1"
   id="svg58"
   sodipodi:docname="icon.svg"
   inkscape:version="0.92.3 (2405546, 2018-03-11)">
  <metadata
     id="metadata64">
    <rdf:RDF>
      <cc:Work
         rdf:about="">
        <dc:format>image/svg+xml</dc:format>
        <dc:type
           rdf:resource="http://purl.org/dc/dcmitype/StillImage" />
      </cc:Work>
    </rdf:RDF>
  </metadata>
  <defs
     id="defs62" />
  <sodipodi:namedview
     pagecolor="#ffffff"
     bordercolor="#666666"
     borderopacity="1"
     objecttolerance="10"
     gridtolerance="10"
     guidetolerance="10"
     inkscape:pageopacity="0"
     inkscape:pageshadow="2"
     inkscape:window-width="1920"
     inkscape:window-height="1017"
     id="namedview60"
     showgrid="false"
     inkscape:zoom="6.8"
     inkscape:cx="50"
     inkscape:cy="68.382353"
     inkscape:window-x="-8"
     inkscape:window-y="-8"
     inkscape:window-maximized="1"
     inkscape:current-layer="svg58" />
  <title
     id="title38">Artboard 5</title>
  <path
     d="M73,39V26a7,7,0,0,0-7-7H58v6h8a1,1,0,0,1,1,1V58a1,1,0,0,1-1,1H58v6h8a7,7,0,0,0,7-7V45H83V39Z"
     id="path40" />
  <path
     d="M27,58a7,7,0,0,0,7,7h8V59H34a1,1,0,0,1-1-1V26a1,1,0,0,1,1-1h8V19H34a7,7,0,0,0-7,7V39H17v6H27Z"
     id="path42" />
  <polygon
     points="46 46 50 54 54 46 62 42 54 38 50 30 46 38 38 42 46 46"
     id="polygon44" />
  <rect
     x="23"
     y="75"
     width="6"
     height="6"
     id="rect46" />
  <rect
     x="39"
     y="75"
     width="6"
     height="6"
     id="rect48" />
  <rect
     x="55"
     y="75"
     width="6"
     height="6"
     id="rect50" />
  <rect
     x="71"
     y="75"
     width="6"
     height="6"
     id="rect52" />
</svg>
