<?xml version="1.0" encoding="UTF-8" standalone="no"?>
<svg
   xmlns:dc="http://purl.org/dc/elements/1.1/"
   xmlns:cc="http://creativecommons.org/ns#"
   xmlns:rdf="http://www.w3.org/1999/02/22-rdf-syntax-ns#"
   xmlns:svg="http://www.w3.org/2000/svg"
   xmlns="http://www.w3.org/2000/svg"
   xmlns:sodipodi="http://sodipodi.sourceforge.net/DTD/sodipodi-0.dtd"
   xmlns:inkscape="http://www.inkscape.org/namespaces/inkscape"
   data-name="Layer 1"
   viewBox="0 0 66 62"
   x="0px"
   y="0px"
   version="1.1"
   id="svg58"
   sodipodi:docname="icon.svg"
   inkscape:version="0.92.3 (2405546, 2018-03-11)"
   width="66"
   height="62">
  <metadata
     id="metadata64">
    <rdf:RDF>
      <cc:Work
         rdf:about="">
        <dc:format>image/svg+xml</dc:format>
        <dc:type
           rdf:resource="http://purl.org/dc/dcmitype/StillImage" />
      </cc:Work>
    </rdf:RDF>
  </metadata>
  <defs
     id="defs62" />
  <sodipodi:namedview
     pagecolor="#ffffff"
     bordercolor="#666666"
     borderopacity="1"
     objecttolerance="10"
     gridtolerance="10"
     guidetolerance="10"
     inkscape:pageopacity="0"
     inkscape:pageshadow="2"
     inkscape:window-width="1920"
     inkscape:window-height="1017"
     id="namedview60"
     showgrid="false"
     inkscape:zoom="6.8"
     inkscape:cx="33"
     inkscape:cy="24.382353"
     inkscape:window-x="-8"
     inkscape:window-y="-8"
     inkscape:window-maximized="1"
     inkscape:current-layer="svg58" />
  <title
     id="title38">Artboard 5</title>
  <path
     d="M 56,20 V 7 A 7,7 0 0 0 49,0 h -8 v 6 h 8 a 1,1 0 0 1 1,1 v 32 a 1,1 0 0 1 -1,1 h -8 v 6 h 8 a 7,7 0 0 0 7,-7 V 26 h 10 v -6 z"
     id="path40"
     inkscape:connector-curvature="0" />
  <path
     d="m 10,39 a 7,7 0 0 0 7,7 h 8 V 40 H 17 A 1,1 0 0 1 16,39 V 7 a 1,1 0 0 1 1,-1 h 8 V 0 H 17 A 7,7 0 0 0 10,7 V 20 H 0 v 6 h 10 z"
     id="path42"
     inkscape:connector-curvature="0" />
  <polygon
     points="54,46 62,42 54,38 50,30 46,38 38,42 46,46 50,54 "
     id="polygon44"
     transform="translate(-17,-19)" />
  <rect
     x="6"
     y="56"
     width="6"
     height="6"
     id="rect46" />
  <rect
     x="22"
     y="56"
     width="6"
     height="6"
     id="rect48" />
  <rect
     x="38"
     y="56"
     width="6"
     height="6"
     id="rect50" />
  <rect
     x="54"
     y="56"
     width="6"
     height="6"
     id="rect52" />
</svg>
